<?xml version="1.0" encoding="UTF-8"?>
<svg width="752pt" height="752pt" version="1.1" viewBox="0 0 752 752" xmlns="http://www.w3.org/2000/svg">
 <path d="m441.36 370.32c9.0508-2.0703 17.027-7.3906 22.414-14.953 5.3867-7.5586 7.8086-16.836 6.8086-26.066s-5.3555-17.77-12.238-24c-6.8828-6.2344-15.812-9.7188-25.098-9.8008-9.2812-0.082031-18.273 3.25-25.262 9.3594-6.9922 6.1094-11.496 14.574-12.656 23.785l-85.625-4.4531-5.5391-28.699h-22.875v9.4727h15.059l22.07 113.66c-5.5547 0.19922-10.742 2.8281-14.188 7.1914-3.4414 4.3672-4.7969 10.02-3.6992 15.473 1.0938 5.4492 4.5273 10.141 9.3906 12.836s10.664 3.1172 15.863 1.1562c5.2031-1.9648 9.2773-6.1094 11.152-11.344 1.8711-5.2344 1.3516-11.027-1.4219-15.844h76.246c-1.6875 2.875-2.5859 6.1406-2.6055 9.4727 0 5.0234 1.9961 9.8438 5.5469 13.395 3.5547 3.5547 8.3711 5.5508 13.395 5.5508 5.0273 0 9.8438-1.9961 13.395-5.5508 3.5547-3.5508 5.5508-8.3711 5.5508-13.395 0-5.0234-1.9961-9.8438-5.5508-13.395-3.5508-3.5508-8.3672-5.5469-13.395-5.5469h-100.02l-2.7461-14.207h107.5zm-13.262 57.773c3.832 0 7.2852 2.3086 8.7539 5.8477 1.4648 3.5391 0.65234 7.6133-2.0547 10.324-2.7109 2.707-6.7812 3.5195-10.324 2.0508-3.5391-1.4648-5.8438-4.918-5.8438-8.75 0-5.2305 4.2383-9.4727 9.4688-9.4727zm4.7344-123.13 0.003906 0.003906c7.5352 0 14.762 2.9922 20.09 8.3203 5.332 5.332 8.3242 12.559 8.3242 20.094s-2.9922 14.766-8.3242 20.094c-5.3281 5.3281-12.555 8.3203-20.09 8.3203-7.5352 0-14.766-2.9922-20.094-8.3203s-8.3203-12.559-8.3203-20.094 2.9922-14.762 8.3203-20.094c5.3281-5.3281 12.559-8.3203 20.094-8.3203zm-104.18 132.61c0 3.832-2.3086 7.2852-5.8477 8.75-3.5391 1.4688-7.6133 0.65625-10.324-2.0508-2.707-2.7109-3.5195-6.7852-2.0508-10.324 1.4648-3.5391 4.918-5.8477 8.75-5.8477 2.5117 0 4.9219 1 6.6992 2.7773 1.7734 1.7734 2.7734 4.1836 2.7734 6.6953zm97.082-42.621h-102.25l-11.887-61.188 83.637 4.3555c1.1211 8.9609 5.4102 17.223 12.086 23.301 6.6797 6.0781 15.305 9.5703 24.332 9.8516zm2.3672-56.832h-14.207v-9.4688h14.207v-14.207h9.4727v14.207h14.207v9.4727l-14.207-0.003907v14.207l-9.4727 0.003907z" fill-rule="evenodd"/>
</svg>
