<?xml version="1.0" encoding="UTF-8"?>
<svg width="752pt" height="752pt" version="1.1" viewBox="0 0 752 752" xmlns="http://www.w3.org/2000/svg">
 <g>
  <path d="m376 597.99c-122.09 0-221.99-99.895-221.99-221.99 0-122.09 99.895-221.99 221.99-221.99s221.99 99.895 221.99 221.99c0 122.09-99.895 221.99-221.99 221.99zm0-429.18c-113.95 0-207.19 93.238-207.19 207.19 0 113.96 93.234 207.19 207.19 207.19s207.19-93.234 207.19-207.19c0-113.95-93.234-207.19-207.19-207.19z"/>
  <path d="m457.4 546.2h-162.79c-12.578 0-22.199-9.6211-22.199-22.199v-125.8c0-45.137 36.258-81.398 81.398-81.398v14.801c-37 0-66.598 29.598-66.598 66.598v125.8c0 4.4414 2.9609 7.3984 7.3984 7.3984h162.79c4.4414 0 7.3984-2.9609 7.3984-7.3984v-125.8c0-37-29.598-66.598-66.598-66.598v-14.801c45.137 0 81.398 36.258 81.398 81.398v125.8c0 12.578-9.6211 22.199-22.199 22.199z"/>
  <path d="m376 302c-32.559 0-59.199-26.641-59.199-59.199 0-32.559 26.641-59.199 59.199-59.199s59.199 26.641 59.199 59.199c0 32.562-26.641 59.199-59.199 59.199zm0-103.59c-24.418 0-44.398 19.98-44.398 44.398 0 24.418 19.98 44.398 44.398 44.398s44.398-19.98 44.398-44.398c0-24.422-19.977-44.398-44.398-44.398z"/>
 </g>
</svg>
